<?xml version="1.0" encoding="UTF-8"?>
<!-- Uploaded to: SVG Find, www.svgrepo.com, Generator: SVG Find Mixer Tools -->
<svg fill="#000000" width="800px" height="800px" version="1.1" viewBox="144 144 512 512" xmlns="http://www.w3.org/2000/svg">
 <path d="m603.18 579.94h-406.35c-6.7227-0.011718-13.164-2.6836-17.914-7.4375s-7.4219-11.195-7.4258-17.918v-188.32l191.48 86.039v18.523-0.003906c0 5.8906 2.3398 11.543 6.5039 15.707 4.168 4.1641 9.8164 6.5039 15.707 6.5039h7.2305v23.836c0 4.207 3.4102 7.6172 7.6172 7.6172s7.6172-3.4102 7.6172-7.6172v-23.836h7.2305c5.8906 0 11.543-2.3398 15.707-6.5039 4.1641-4.1641 6.5039-9.8164 6.5039-15.707v-18.52l191.48-86.039v188.32c-0.007813 6.7266-2.6836 13.176-7.4453 17.93-4.7578 4.7539-11.211 7.4258-17.938 7.4258zm-218.03-102.16h29.699c1.8438 0.003906 3.6172-0.72656 4.9219-2.0312 1.3086-1.3047 2.0391-3.0742 2.0391-4.9219v-39.891c0-1.8438-0.73438-3.6133-2.043-4.918-1.3047-1.3047-3.0742-2.0352-4.918-2.0312h-29.699c-3.8359 0.011719-6.9414 3.1133-6.9609 6.9492v39.895-0.003906c0.011719 3.8398 3.125 6.9453 6.9609 6.9531zm-188.32-207.75c-6.7227 0.007812-13.164 2.6836-17.914 7.4375s-7.4219 11.195-7.4258 17.918v54.172l191.48 86.043v-4.6641c0.007812-5.8867 2.3516-11.527 6.5156-15.688 4.1641-4.1602 9.8086-6.4961 15.695-6.4961h7.2305v-23.836c0-4.207 3.4102-7.6172 7.6172-7.6172s7.6172 3.4102 7.6172 7.6172v23.836h7.2305c5.8867 0 11.531 2.3359 15.699 6.4961 4.1641 4.1602 6.5078 9.8008 6.5117 15.688v4.6641l191.48-86.039v-54.172c-0.007813-6.7266-2.6836-13.176-7.4453-17.93-4.7578-4.7539-11.211-7.4219-17.938-7.4219zm127.59-40.715h-0.003906c0.015625-5.1055 4.1484-9.2422 9.2539-9.2578h132.67c5.1133 0 9.2539 4.1445 9.2539 9.2578v25.461h-151.18v-25.461zm278.77 25.461h-112.37v-25.461c0-6.4922-2.582-12.719-7.1719-17.312s-10.812-7.1758-17.309-7.1797h-132.67c-6.4922 0.011719-12.711 2.5977-17.301 7.1875-4.5898 4.5898-7.1719 10.812-7.1797 17.305v25.461h-112.36c-10.766 0.007812-21.09 4.2852-28.707 11.895-7.6172 7.6094-11.906 17.926-11.926 28.691v259.22c0.019532 10.766 4.3086 21.086 11.926 28.691 7.6172 7.6094 17.941 11.887 28.707 11.895h406.35c10.766 0 21.094-4.2734 28.715-11.883 7.6172-7.6094 11.902-17.934 11.914-28.703v-259.2c-0.015626-10.766-4.3047-21.086-11.922-28.691-7.6172-7.6094-17.941-11.879-28.707-11.879z" fill-rule="evenodd"/>
</svg>